<!DOCTYPE svg PUBLIC "-//W3C//DTD SVG 1.1//EN" "http://www.w3.org/Graphics/SVG/1.1/DTD/svg11.dtd">
<!-- Uploaded to: SVG Repo, www.svgrepo.com, Transformed by: SVG Repo Mixer Tools -->
<svg fill="#fff" version="1.1" id="Capa_1" xmlns="http://www.w3.org/2000/svg" xmlns:xlink="http://www.w3.org/1999/xlink" width="800px" height="800px" viewBox="0 0 67.899 67.899" xml:space="preserve" stroke="#fff">
<g id="SVGRepo_bgCarrier" stroke-width="0"/>
<g id="SVGRepo_tracerCarrier" stroke-linecap="round" stroke-linejoin="round"/>
<g id="SVGRepo_iconCarrier"> <g> <path d="M32.641,41.654l4.135,20.465l-0.459,0.501c-0.483,0.529-1.168,0.83-1.887,0.83c0,0,0,0-0.002,0 c-0.716-0.001-1.4-0.303-1.887-0.833L13.434,41.654h2.264c1.774,0,3.309-1.266,3.65-3.007l2.078-10.648l2.355,10.732 c0.371,1.692,1.898,2.923,3.633,2.923H32.641z M4.26,30.91c0.685,1.127,1.484,2.229,2.401,3.305h5.974l4.927-25.25 c0.337-1.722,1.854-2.987,3.608-3.007c1.813,0.014,3.304,1.218,3.677,2.927l5.56,25.33h5.279c1.761,0,3.293,1.254,3.646,2.98 l1.444,7.152l0.871-6.56c0.246-1.841,1.832-3.229,3.688-3.229h16.652l0.154-0.17c0.027-0.031,0.058-0.062,0.084-0.097 c0.879-1.062,1.644-2.132,2.306-3.212l1.737-3.448c0.929-2.343,1.387-4.75,1.387-7.257c0-10.401-7.835-19-17.912-20.222L48.4,0.032 C48.028,0.011,47.656,0,47.281,0c-4.746,0-9.222,1.602-12.84,4.557C30.823,1.602,26.346,0,21.6,0c-0.351,0-0.699,0.009-1.045,0.026 l-1.346,0.119C9.099,1.333,1.225,9.949,1.225,20.375c0,2.447,0.447,4.821,1.336,7.109L4.26,30.91z M47.471,50.428l7.709-8.43h-6.59 L47.471,50.428z M66.059,37.172H45.417c-0.531,0-0.982,0.394-1.054,0.922l-2.965,22.304l-4.589-22.72 c-0.102-0.496-0.536-0.852-1.041-0.852h-7.417l-6.02-27.422c-0.106-0.491-0.527-0.831-1.05-0.834 c-0.503,0.005-0.935,0.365-1.03,0.859l-5.347,27.398H1.308c-0.588,0-1.063,0.476-1.063,1.063c0,0.586,0.475,1.062,1.063,1.062 h14.473c0.509,0,0.945-0.359,1.043-0.859l4.532-23.226l5.104,23.25c0.107,0.488,0.539,0.835,1.038,0.835h7.4l5.675,28.094 c0.102,0.497,0.538,0.853,1.042,0.853c0.012,0,0.024,0,0.036,0c0.52-0.019,0.949-0.407,1.018-0.923l3.68-27.678h19.711 c0.588,0,1.063-0.477,1.063-1.063S66.647,37.172,66.059,37.172z"/> </g> </g>
</svg>