<svg width="816" height="198" viewBox="0 0 816 198" fill="none" xmlns="http://www.w3.org/2000/svg">
<path d="M272.134 115.788C279.266 108.655 284.718 100.022 288.092 90.5164C291.467 81.0108 292.678 70.8723 291.639 60.8393C290.6 50.8063 287.336 41.1313 282.085 32.519C276.835 23.9068 269.729 16.574 261.287 11.0548C252.844 5.53553 243.277 1.96879 233.281 0.614318C223.286 -0.740158 213.114 0.151725 203.507 3.22501C193.9 6.2983 185.099 11.4756 177.746 18.3799C170.393 25.2842 164.672 33.7416 161 43.1363L179.696 50.4435C182.281 43.8292 186.309 37.8747 191.486 33.0137C196.663 28.1528 202.859 24.5077 209.623 22.3439C216.387 20.1802 223.548 19.5523 230.586 20.5059C237.623 21.4595 244.359 23.9707 250.303 27.8565C256.247 31.7423 261.25 36.9049 264.946 42.9684C268.643 49.0319 270.941 55.8435 271.673 62.9073C272.404 69.971 271.551 77.109 269.175 83.8014C266.8 90.4938 262.961 96.5721 257.94 101.594L272.134 115.788Z" fill="#87FF73"/>
<path d="M257.94 101.594L272.134 115.788L194 193.5L167.226 193.45L257.94 101.594Z" fill="#87FF73"/>
<path d="M38.688 93.08C35.04 93.08 31.744 93.72 28.8 95C25.856 96.216 23.36 98.04 21.312 100.472C19.264 102.84 17.696 105.752 16.608 109.208C15.52 112.6 14.976 116.44 14.976 120.728C14.976 126.36 15.84 131.256 17.568 135.416C19.36 139.576 21.984 142.776 25.44 145.016C28.96 147.256 33.344 148.376 38.592 148.376C41.6 148.376 44.448 148.12 47.136 147.608C49.824 147.096 52.448 146.456 55.008 145.688V153.176C52.448 154.136 49.792 154.84 47.04 155.288C44.352 155.736 41.12 155.96 37.344 155.96C30.368 155.96 24.544 154.52 19.872 151.64C15.2 148.76 11.68 144.664 9.312 139.352C7.008 134.04 5.856 127.8 5.856 120.632C5.856 115.448 6.56 110.712 7.968 106.424C9.44 102.136 11.552 98.424 14.304 95.288C17.12 92.152 20.576 89.752 24.672 88.088C28.768 86.36 33.472 85.496 38.784 85.496C42.304 85.496 45.696 85.848 48.96 86.552C52.224 87.256 55.136 88.248 57.696 89.528L54.24 96.824C52.128 95.864 49.76 95 47.136 94.232C44.576 93.464 41.76 93.08 38.688 93.08ZM88.3043 102.68C94.5763 102.68 99.2163 104.056 102.224 106.808C105.232 109.56 106.736 113.944 106.736 119.96V155H100.592L98.9603 147.704H98.5763C97.1043 149.56 95.5683 151.128 93.9683 152.408C92.4323 153.624 90.6403 154.52 88.5923 155.096C86.6083 155.672 84.1763 155.96 81.2963 155.96C78.2243 155.96 75.4403 155.416 72.9443 154.328C70.5123 153.24 68.5923 151.576 67.1843 149.336C65.7763 147.032 65.0723 144.152 65.0723 140.696C65.0723 135.576 67.0883 131.64 71.1203 128.888C75.1523 126.072 81.3603 124.536 89.7443 124.28L98.4803 123.992V120.92C98.4803 116.632 97.5523 113.656 95.6963 111.992C93.8403 110.328 91.2163 109.496 87.8243 109.496C85.1363 109.496 82.5763 109.912 80.1443 110.744C77.7123 111.512 75.4403 112.408 73.3282 113.432L70.7363 107.096C72.9763 105.88 75.6323 104.856 78.7043 104.024C81.7763 103.128 84.9763 102.68 88.3043 102.68ZM90.8003 130.136C84.4003 130.392 79.9523 131.416 77.4563 133.208C75.0243 135 73.8083 137.528 73.8083 140.792C73.8083 143.672 74.6723 145.784 76.4003 147.128C78.1923 148.472 80.4643 149.144 83.2163 149.144C87.5683 149.144 91.1843 147.96 94.0643 145.592C96.9443 143.16 98.3843 139.448 98.3843 134.456V129.848L90.8003 130.136ZM146.629 102.584C147.589 102.584 148.613 102.648 149.701 102.776C150.853 102.84 151.845 102.968 152.677 103.16L151.621 110.936C150.789 110.744 149.861 110.584 148.837 110.456C147.877 110.328 146.949 110.264 146.053 110.264C144.069 110.264 142.181 110.68 140.389 111.512C138.597 112.344 136.997 113.528 135.589 115.064C134.181 116.536 133.061 118.328 132.229 120.44C131.461 122.552 131.077 124.92 131.077 127.544V155H122.629V103.544H129.541L130.501 112.952H130.885C131.973 111.032 133.285 109.304 134.821 107.768C136.357 106.168 138.117 104.92 140.101 104.024C142.085 103.064 144.261 102.584 146.629 102.584ZM180.282 102.584C184.698 102.584 188.474 103.544 191.61 105.464C194.81 107.384 197.242 110.104 198.906 113.624C200.634 117.08 201.498 121.144 201.498 125.816V130.904H166.266C166.394 136.728 167.866 141.176 170.682 144.248C173.562 147.256 177.562 148.76 182.682 148.76C185.946 148.76 188.826 148.472 191.322 147.896C193.882 147.256 196.506 146.36 199.194 145.208V152.6C196.57 153.752 193.978 154.584 191.418 155.096C188.858 155.672 185.818 155.96 182.298 155.96C177.434 155.96 173.114 154.968 169.338 152.984C165.626 151 162.714 148.056 160.602 144.152C158.554 140.184 157.53 135.352 157.53 129.656C157.53 124.024 158.458 119.192 160.314 115.16C162.234 111.128 164.89 108.024 168.282 105.848C171.738 103.672 175.738 102.584 180.282 102.584ZM180.186 109.496C176.154 109.496 172.954 110.808 170.586 113.432C168.282 115.992 166.906 119.576 166.458 124.184H192.666C192.666 121.24 192.218 118.68 191.322 116.504C190.426 114.328 189.05 112.632 187.194 111.416C185.402 110.136 183.066 109.496 180.186 109.496ZM323.135 118.808H346.847V152.408C343.135 153.624 339.391 154.52 335.615 155.096C331.839 155.672 327.551 155.96 322.751 155.96C315.647 155.96 309.663 154.552 304.799 151.736C299.935 148.856 296.223 144.792 293.663 139.544C291.167 134.232 289.919 127.96 289.919 120.728C289.919 113.56 291.327 107.352 294.143 102.104C296.959 96.856 300.991 92.792 306.239 89.912C311.551 86.968 317.951 85.496 325.439 85.496C329.279 85.496 332.895 85.848 336.287 86.552C339.743 87.256 342.943 88.248 345.887 89.528L342.623 97.016C340.191 95.928 337.439 95 334.367 94.232C331.359 93.464 328.223 93.08 324.959 93.08C319.519 93.08 314.847 94.2 310.943 96.44C307.039 98.68 304.063 101.88 302.015 106.04C299.967 110.136 298.943 115.032 298.943 120.728C298.943 126.168 299.807 131 301.535 135.224C303.327 139.384 306.111 142.648 309.887 145.016C313.663 147.32 318.623 148.472 324.767 148.472C326.815 148.472 328.607 148.408 330.143 148.28C331.743 148.088 333.183 147.864 334.463 147.608C335.807 147.352 337.055 147.096 338.207 146.84V126.488H323.135V118.808ZM381.554 102.68C387.826 102.68 392.466 104.056 395.474 106.808C398.482 109.56 399.986 113.944 399.986 119.96V155H393.842L392.21 147.704H391.826C390.354 149.56 388.818 151.128 387.218 152.408C385.682 153.624 383.89 154.52 381.842 155.096C379.858 155.672 377.426 155.96 374.546 155.96C371.474 155.96 368.69 155.416 366.194 154.328C363.762 153.24 361.842 151.576 360.434 149.336C359.026 147.032 358.322 144.152 358.322 140.696C358.322 135.576 360.338 131.64 364.37 128.888C368.402 126.072 374.61 124.536 382.994 124.28L391.73 123.992V120.92C391.73 116.632 390.802 113.656 388.946 111.992C387.09 110.328 384.466 109.496 381.074 109.496C378.386 109.496 375.826 109.912 373.394 110.744C370.962 111.512 368.69 112.408 366.578 113.432L363.986 107.096C366.226 105.88 368.882 104.856 371.954 104.024C375.026 103.128 378.226 102.68 381.554 102.68ZM384.05 130.136C377.65 130.392 373.202 131.416 370.706 133.208C368.274 135 367.058 137.528 367.058 140.792C367.058 143.672 367.922 145.784 369.65 147.128C371.442 148.472 373.714 149.144 376.466 149.144C380.818 149.144 384.434 147.96 387.314 145.592C390.194 143.16 391.634 139.448 391.634 134.456V129.848L384.05 130.136ZM433.063 149.048C434.343 149.048 435.655 148.952 436.999 148.76C438.343 148.504 439.431 148.248 440.263 147.992V154.424C439.367 154.872 438.087 155.224 436.423 155.48C434.759 155.8 433.159 155.96 431.623 155.96C428.935 155.96 426.439 155.512 424.135 154.616C421.895 153.656 420.071 152.024 418.663 149.72C417.255 147.416 416.551 144.184 416.551 140.024V110.072H409.255V106.04L416.647 102.68L420.007 91.736H424.999V103.544H439.879V110.072H424.999V139.832C424.999 142.968 425.735 145.304 427.207 146.84C428.743 148.312 430.695 149.048 433.063 149.048ZM459.014 103.448C459.014 104.664 458.95 105.912 458.822 107.192C458.758 108.472 458.662 109.624 458.534 110.648H459.11C460.198 108.856 461.574 107.384 463.238 106.232C464.902 105.08 466.758 104.216 468.806 103.64C470.854 103 472.966 102.68 475.142 102.68C479.302 102.68 482.758 103.352 485.51 104.696C488.326 105.976 490.438 107.992 491.846 110.744C493.254 113.496 493.958 117.08 493.958 121.496V155H485.606V122.072C485.606 117.912 484.678 114.808 482.822 112.76C480.966 110.712 478.054 109.688 474.086 109.688C470.246 109.688 467.238 110.424 465.062 111.896C462.886 113.304 461.318 115.416 460.358 118.232C459.462 120.984 459.014 124.376 459.014 128.408V155H450.566V82.04H459.014V103.448ZM529.782 102.584C534.198 102.584 537.974 103.544 541.11 105.464C544.31 107.384 546.742 110.104 548.406 113.624C550.134 117.08 550.998 121.144 550.998 125.816V130.904H515.766C515.894 136.728 517.366 141.176 520.182 144.248C523.062 147.256 527.062 148.76 532.182 148.76C535.446 148.76 538.326 148.472 540.822 147.896C543.382 147.256 546.006 146.36 548.694 145.208V152.6C546.07 153.752 543.478 154.584 540.918 155.096C538.358 155.672 535.318 155.96 531.798 155.96C526.934 155.96 522.614 154.968 518.838 152.984C515.126 151 512.214 148.056 510.102 144.152C508.054 140.184 507.03 135.352 507.03 129.656C507.03 124.024 507.958 119.192 509.814 115.16C511.734 111.128 514.39 108.024 517.782 105.848C521.238 103.672 525.238 102.584 529.782 102.584ZM529.686 109.496C525.654 109.496 522.454 110.808 520.086 113.432C517.782 115.992 516.406 119.576 515.958 124.184H542.166C542.166 121.24 541.718 118.68 540.822 116.504C539.926 114.328 538.55 112.632 536.694 111.416C534.902 110.136 532.566 109.496 529.686 109.496ZM588.098 102.584C589.058 102.584 590.082 102.648 591.17 102.776C592.322 102.84 593.314 102.968 594.146 103.16L593.09 110.936C592.258 110.744 591.33 110.584 590.306 110.456C589.346 110.328 588.418 110.264 587.522 110.264C585.538 110.264 583.65 110.68 581.858 111.512C580.066 112.344 578.466 113.528 577.058 115.064C575.65 116.536 574.53 118.328 573.698 120.44C572.93 122.552 572.546 124.92 572.546 127.544V155H564.098V103.544H571.01L571.97 112.952H572.354C573.442 111.032 574.754 109.304 576.29 107.768C577.826 106.168 579.586 104.92 581.57 104.024C583.554 103.064 585.73 102.584 588.098 102.584Z" fill="white"/>
<path d="M185 193H709.031" stroke="#87FF73"/>
<path fill-rule="evenodd" clip-rule="evenodd" d="M795.691 22.9705C818.236 44.7766 818.836 80.7306 797.03 103.276L709 192L616.287 104.593C593.753 82.7749 593.174 46.8206 614.992 24.287C636.81 1.75341 672.764 1.1735 695.298 22.9917L706.329 33.6728L715.386 24.3089C737.192 1.76362 773.146 1.16439 795.691 22.9705Z" stroke="#87FF73" stroke-width="3" stroke-linecap="round"/>
</svg>
